HIERARCHY
ROOT Hips
{
	OFFSET 0.000000 0.000000 0.000000
	CHANNELS 6 Xposition Yposition Zposition Zrotation Yrotation Xrotation 
	JOINT LHipJoint
	{
		OFFSET 0.000000 0.000000 0.000000
		CHANNELS 3 Zrotation Yrotation Xrotation
		JOINT LeftUpLeg
		{
			OFFSET 1.363060 -1.794630 0.839290
			CHANNELS 3 Zrotation Yrotation Xrotation
			JOINT LeftLeg
			{
				OFFSET 2.448110 -6.726130 0.000000
				CHANNELS 3 Zrotation Yrotation Xrotation
				JOINT LeftFoot
				{
					OFFSET 2.562200 -7.039590 0.000000
					CHANNELS 3 Zrotation Yrotation Xrotation
					JOINT LeftToeBase
					{
						OFFSET 0.157640 -0.433110 2.322550
						CHANNELS 3 Zrotation Yrotation Xrotation
						End Site
						{
							OFFSET 0.000000 0.000000 0.000000
						}
					}
				}
			}
		}
	}
	JOINT RHipJoint
	{
		OFFSET 0.000000 0.000000 0.000000
		CHANNELS 3 Zrotation Yrotation Xrotation
		JOINT RightUpLeg
		{
			OFFSET -1.305520 -1.794630 0.839290
			CHANNELS 3 Zrotation Yrotation Xrotation
			JOINT RightLeg
			{
				OFFSET -2.542530 -6.985550 0.000000
				CHANNELS 3 Zrotation Yrotation Xrotation
				JOINT RightFoot
				{
					OFFSET -2.568260 -7.056230 0.000000
					CHANNELS 3 Zrotation Yrotation Xrotation
					JOINT RightToeBase
					{
						OFFSET -0.164730 -0.452590 2.363150
						CHANNELS 3 Zrotation Yrotation Xrotation
						End Site
						{
							OFFSET 0.000000 0.000000 0.000000
						}
					}
				}
			}
		}
	}
	JOINT LowerBack
	{
		OFFSET 0.000000 0.000000 0.000000
		CHANNELS 3 Zrotation Yrotation Xrotation
		JOINT Spine
		{
			OFFSET 0.028270 2.035590 -0.193380
			CHANNELS 3 Zrotation Yrotation Xrotation
			JOINT Spine1
			{
				OFFSET 0.056720 2.048850 -0.042750
				CHANNELS 3 Zrotation Yrotation Xrotation
				JOINT Neck
				{
					OFFSET 0.000000 0.000000 0.000000
					CHANNELS 3 Zrotation Yrotation Xrotation
					JOINT Neck1
					{
						OFFSET -0.054170 1.746240 0.172020
						CHANNELS 3 Zrotation Yrotation Xrotation
						JOINT Head
						{
							OFFSET 0.104070 1.761360 -0.123970
							CHANNELS 3 Zrotation Yrotation Xrotation
							End Site
							{
								OFFSET 0.000000 0.000000 0.000000
							}
						}
					}
				}
				JOINT LeftShoulder
				{
					OFFSET 0.000000 0.000000 0.000000
					CHANNELS 3 Zrotation Yrotation Xrotation
					JOINT LeftArm
					{
						OFFSET 3.362410 1.200890 -0.311210
						CHANNELS 3 Zrotation Yrotation Xrotation
						JOINT LeftForeArm
						{
							OFFSET 4.983000 -0.000000 -0.000000
							CHANNELS 3 Zrotation Yrotation Xrotation
							JOINT LeftHand
							{
								OFFSET 3.483560 -0.000000 -0.000000
								CHANNELS 3 Zrotation Yrotation Xrotation
								JOINT LeftFingerBase
								{
									OFFSET 0.000000 0.000000 0.000000
									CHANNELS 3 Zrotation Yrotation Xrotation
									JOINT LeftHandIndex1
									{
										OFFSET 0.715260 -0.000000 -0.000000
										CHANNELS 3 Zrotation Yrotation Xrotation
										End Site
										{
											OFFSET 0.000000 0.000000 0.000000
										}
									}
								}
								JOINT LThumb
								{
									OFFSET 0.000000 0.000000 0.000000
									CHANNELS 3 Zrotation Yrotation Xrotation
									End Site
									{
										OFFSET 0.000000 0.000000 0.000000
									}
								}
							}
						}
					}
				}
				JOINT RightShoulder
				{
					OFFSET 0.000000 0.000000 0.000000
					CHANNELS 3 Zrotation Yrotation Xrotation
					JOINT RightArm
					{
						OFFSET -3.136600 1.374050 -0.404650
						CHANNELS 3 Zrotation Yrotation Xrotation
						JOINT RightForeArm
						{
							OFFSET -5.241900 -0.000000 -0.000000
							CHANNELS 3 Zrotation Yrotation Xrotation
							JOINT RightHand
							{
								OFFSET -3.444170 -0.000000 -0.000000
								CHANNELS 3 Zrotation Yrotation Xrotation
								JOINT RightFingerBase
								{
									OFFSET 0.000000 0.000000 0.000000
									CHANNELS 3 Zrotation Yrotation Xrotation
									JOINT RightHandIndex1
									{
										OFFSET -0.622530 -0.000000 -0.000000
										CHANNELS 3 Zrotation Yrotation Xrotation
										End Site
										{
											OFFSET 0.000000 0.000000 0.000000
										}
									}
								}
								JOINT RThumb
								{
									OFFSET 0.000000 0.000000 0.000000
									CHANNELS 3 Zrotation Yrotation Xrotation
									End Site
									{
										OFFSET 0.000000 0.000000 0.000000
									}
								}
							}
						}
					}
				}
			}
		}
	}
}
MOTION
Frames: 9
Frame Time: 0.008333
-13.908468 14.570736 -19.045495 -14.398890 -43.712013 31.331630 3.271739 11.677759 -0.205078 -32.918080 -3.620462 -11.299140 -0.758667 5.033187 54.638106 -1.334121 2.947054 17.561279 2.865169 2.778546 3.262630 18.570059 -19.298666 13.020823 -2.867867 18.062245 -85.589581 3.363011 6.722055 43.784653 12.798920 16.020405 11.480327 6.418580 8.686222 -18.894985 -15.633827 1.374869 0.922143 9.547193 -0.778911 -4.639173 11.457522 -6.110992 14.443069 -2.191751 5.627466 -20.439649 1.415211 5.781567 13.342681 -16.691808 16.594620 -9.050090 13.075973 -2.416559 0.891389 -86.258607 -55.854558 44.198540 72.240236 -73.868279 -8.571253 17.018798 -31.445863 -0.541107 0.000002 -0.000001 0.000002 0.000000 0.000000 -0.000000 0.000000 0.000000 -0.000000 -1.340296 -9.203139 4.289260 64.719083 3.879625 -0.847988 25.377182 54.100680 53.453506 -24.746444 19.607704 -1.884037 -0.000005 0.000004 -0.000002 0.000000 0.000000 0.000000 0.000000 0.000000 -0.000000 
-14.110375 14.538604 -18.819369 -14.952904 -43.340338 30.220665 3.506955 11.987283 0.204184 -32.493319 -5.336694 -12.510538 3.568119 9.026132 59.557978 -1.120384 3.081802 17.325121 3.824098 4.771663 3.440830 18.286891 -19.563543 12.193132 -3.111701 18.807437 -84.162801 5.085146 7.425487 50.201753 6.156079 12.592624 5.593719 4.502178 5.687714 -12.650002 -14.899702 1.465882 1.625202 8.954537 0.400538 -4.322966 12.333253 -5.649932 15.058746 -3.094714 5.467305 -20.763898 1.363078 5.790657 13.331766 -15.620199 15.990053 -8.895501 12.597653 -1.834386 0.599149 -86.804243 -54.709714 43.535504 66.332502 -75.069923 -3.044507 17.411418 -31.143531 -0.657226 0.000002 -0.000001 0.000002 -0.000000 -0.000000 -0.000000 0.000000 -0.000000 0.000000 -2.352537 -9.588764 4.975058 64.938397 7.263907 -1.330474 25.685733 54.112476 53.802615 -25.221226 19.943626 -1.997922 -0.000005 0.000004 -0.000002 0.000000 0.000000 -0.000000 0.000000 -0.000000 -0.000000 
-14.317432 14.539655 -18.571922 -15.409691 -42.748895 29.392390 2.998301 11.565062 0.808768 -31.131356 -6.347796 -14.631999 11.369786 13.279680 63.864856 -2.507114 0.674187 18.950288 3.462651 5.186679 2.440107 18.544892 -19.052126 11.144246 -3.419245 18.235096 -82.540232 6.589460 7.161301 55.354674 1.458730 8.995329 2.009017 7.104640 5.421923 -16.890723 -14.462872 1.376129 1.902697 8.996140 1.171026 -4.016550 12.315515 -4.898903 16.589946 -3.137006 5.292457 -21.727510 1.039241 5.641230 13.399054 -14.785265 15.313374 -7.288762 12.243625 -1.134253 0.301937 -86.956038 -54.161648 42.188412 57.774446 -76.615914 4.370428 16.069775 -32.429855 -0.249268 0.000002 -0.000001 0.000002 0.000000 0.000000 0.000000 -0.000000 0.000000 0.000000 -1.773216 -9.896960 5.474269 64.168940 11.213018 -2.434054 26.040002 53.981095 52.884647 -24.129259 20.048747 -1.804386 -0.000005 0.000004 -0.000002 0.000000 0.000000 -0.000000 0.000000 -0.000000 0.000000 
-14.523859 14.552823 -18.337387 -15.662687 -41.983078 28.933195 2.795476 10.903544 1.206343 -29.652230 -7.684814 -17.468992 15.841436 15.652132 68.680260 -3.153503 -0.590608 19.878605 3.201526 6.445936 1.015309 18.841156 -18.523495 10.592082 -3.804039 17.505702 -81.076252 6.542160 6.139398 57.764551 -1.273707 6.547335 -0.854130 8.807907 8.513841 -22.883233 -14.608080 1.213922 1.896770 9.307032 1.244672 -3.763336 10.556740 -4.101299 17.731738 -1.130250 5.307989 -22.066624 1.005135 5.234319 13.098051 -15.405743 14.911089 -6.263114 13.812027 -0.026809 -0.263326 -86.395631 -52.010481 41.458813 49.579392 -76.440741 9.848478 13.443965 -32.951509 0.546814 0.000002 -0.000001 0.000002 0.000000 0.000000 -0.000000 0.000000 0.000000 -0.000000 0.042582 -9.205557 6.533227 63.674514 15.716283 -4.375914 27.089918 53.313569 51.908888 -21.003327 21.536998 -1.242610 -0.000005 0.000004 -0.000002 -0.000000 0.000000 -0.000000 -0.000000 0.000000 0.000000 
-14.732402 14.565856 -18.134535 -15.731357 -41.319480 28.259453 2.787222 10.469352 1.343146 -28.140185 -9.073493 -20.215781 15.244701 16.320077 73.851949 -2.272901 1.045872 19.296010 3.238904 6.860431 0.767334 19.278269 -18.293836 10.188330 -3.810598 16.992520 -79.437233 4.725501 4.999850 58.829911 -3.030708 5.690077 -3.427257 7.806925 9.943155 -22.631019 -15.290332 0.982670 2.297486 9.516682 1.478165 -3.579526 10.383276 -3.792100 19.157899 -0.434278 5.136330 -22.907905 1.213511 4.898690 12.468913 -15.300161 14.210457 -5.611794 14.217086 1.656805 -0.845338 -85.806302 -50.224452 41.158684 41.129948 -75.364947 15.114920 11.886833 -32.583185 1.019317 0.000002 -0.000001 0.000002 0.000000 0.000000 0.000000 -0.000000 0.000000 -0.000000 0.349059 -8.778267 7.695853 63.165225 21.439850 -6.467520 27.964269 52.307961 50.677622 -19.161116 22.020014 -0.905212 -0.000005 0.000004 -0.000002 0.000000 0.000000 -0.000000 -0.000000 -0.000000 -0.000000 
-14.954520 14.571967 -17.921772 -15.633141 -40.648972 27.867228 2.698681 9.698342 1.591811 -26.548150 -10.277377 -23.491440 16.289633 17.407929 78.627367 -2.106082 1.485781 19.559803 3.069566 5.577641 1.418578 19.645081 -17.911280 10.000526 -3.351215 16.229121 -78.443423 1.042759 3.331595 59.140799 -2.771150 6.795523 -5.000282 8.900072 7.551518 -22.038010 -16.081083 0.648098 2.076856 9.675553 1.578245 -3.303743 10.827199 -3.591763 21.061799 -0.382304 4.930920 -24.127063 1.437406 4.614527 11.802007 -14.655657 13.748632 -3.050585 13.847558 3.476845 -1.401990 -85.114708 -49.094063 40.651905 32.502448 -73.887225 20.597350 9.879787 -32.712456 1.645266 0.000002 -0.000001 0.000002 -0.000000 0.000000 -0.000000 -0.000000 -0.000000 -0.000000 0.327998 -8.353372 8.293700 62.039031 27.008810 -8.371151 28.020403 51.321720 49.243029 -17.858388 21.860850 -0.617371 -0.000005 0.000004 -0.000002 -0.000000 -0.000000 -0.000000 0.000000 0.000000 0.000000 
-15.166066 14.584880 -17.705405 -15.206620 -39.492424 27.589368 2.234273 7.979406 1.453731 -24.444702 -11.062715 -26.879505 17.076775 18.442862 83.159283 -1.854164 2.138561 19.956784 2.419878 4.305586 1.189267 19.855592 -16.556686 9.833587 -3.676700 14.265438 -77.595951 -1.541049 1.199619 59.418232 -3.234140 6.791596 -6.813322 10.176033 5.687267 -22.319534 -16.851030 0.265174 1.826950 9.930401 1.526937 -3.155988 11.620145 -3.534725 21.330200 -0.613755 4.736510 -23.909886 1.644018 4.425786 11.238441 -14.758330 13.631678 -1.166812 13.084952 3.999958 -1.863412 -83.897619 -46.938481 39.252576 24.348115 -71.936209 24.842292 7.059279 -31.918072 2.434816 0.000002 -0.000001 0.000002 0.000000 0.000000 -0.000000 -0.000000 -0.000000 -0.000000 0.022822 -7.370149 8.710017 60.289744 30.659702 -10.166475 27.262994 50.432040 48.116035 -17.720561 21.376207 -0.579040 -0.000005 0.000004 -0.000002 -0.000000 0.000000 -0.000000 -0.000000 0.000000 0.000000 
-15.371922 14.618844 -17.478979 -14.298373 -38.319498 27.292852 1.909914 7.029741 1.241890 -23.042342 -11.767716 -30.496776 19.938961 19.030493 86.724610 -2.601184 0.866029 21.031710 1.826175 4.883718 -0.353149 20.233493 -15.323669 9.753628 -5.184359 12.070852 -76.909181 -2.399426 -0.501863 59.695762 -4.148875 6.806424 -8.843425 9.969491 6.164338 -22.445486 -17.426436 -0.339196 1.813943 10.250825 0.908504 -3.055278 11.905326 -4.130352 21.528615 -0.861410 4.768132 -23.630394 1.741855 4.459546 10.385079 -13.631299 13.382224 -1.638398 11.983630 5.769485 -1.763875 -83.006210 -44.858528 37.832015 17.726537 -69.992180 27.918203 5.458732 -31.278556 2.871126 0.000002 -0.000001 0.000002 -0.000000 -0.000000 0.000000 -0.000000 -0.000000 -0.000000 -0.989525 -5.379461 9.168660 58.673633 34.483947 -11.913423 26.752997 49.918650 48.038085 -18.322246 21.528711 -0.706970 -0.000005 0.000004 -0.000002 -0.000000 0.000000 -0.000000 -0.000000 -0.000000 -0.000000 
-15.584384 14.635345 -17.250751 -13.408079 -37.676490 27.113929 2.146806 7.066520 1.366510 -22.507912 -12.774037 -34.492939 21.829990 19.341378 89.887451 -3.023668 0.150435 21.714824 1.783354 5.318517 -0.774628 20.372295 -14.992214 9.744867 -6.127867 11.115590 -76.418655 -3.695878 -1.470802 60.068892 -4.394154 8.155071 -10.613066 10.393147 6.572470 -23.526335 -17.609952 -0.873904 1.676800 10.082139 0.225963 -2.893038 11.312305 -4.576938 22.182849 -0.556190 4.867664 -23.719120 2.011604 4.401699 9.336484 -13.009802 13.270559 -1.308877 11.794617 8.268154 -1.799755 -82.345808 -42.793784 36.695505 13.096845 -67.786167 29.053475 3.761378 -29.749194 3.173887 0.000002 -0.000001 0.000002 0.000000 0.000000 0.000000 -0.000000 0.000000 -0.000000 -1.764579 -3.503883 9.878917 57.104167 39.249591 -13.482007 26.097998 49.556372 47.066583 -16.531029 22.098606 -0.359986 -0.000005 0.000004 -0.000002 0.000000 -0.000000 -0.000000 0.000000 0.000000 0.000000 
